# xmcd
#
# Track frame offsets: 
#        150
#        41737
#        58950
#        81445
#        104639
#        120962
#        147840
#        162624
#        183965
#        212491
#        235265
#
# Disc length: 3436 seconds
#
# Revision: 0
# Processed by: cddbd v1.5PL3 Copyright (c) Steve Scherf et al.
# Submitted via: ExactAudioCopy v0.95a3
#
DISCID=9e0d6a0b
DTITLE=Frog Holler - Live - 20031102 - Durham, NC [CD1 of 2)
DYEAR=2003
DGENRE=Alternative Country
TTITLE0=Glory - You're Leaving Soon
TTITLE1=About Time
TTITLE2=Virginia
TTITLE3=Adams Hotel Road
TTITLE4=For The Turnstiles  [Neil Young]
TTITLE5=The Sweetest Sound
TTITLE6=What Does The Deep Sea Say?  [Traditional]
TTITLE7=Choose A Path
TTITLE8=Million Things Good
TTITLE9=The Losing End  [Neil Young]
TTITLE10=Song For You  [Gram Parsons]
EXTD=Recorded live at Man Bites Dog Theater - Durham, NC on November 0
EXTD=2, 2003.\n\nSoundboard recording.
EXTT0=
EXTT1=
EXTT2=
EXTT3=
EXTT4=
EXTT5=
EXTT6=
EXTT7=
EXTT8=
EXTT9=
EXTT10=
PLAYORDER=
